<svg width="48" height="48" viewBox="0 0 48 48" fill="none" xmlns="http://www.w3.org/2000/svg">
<g clip-path="url('#clip0_1_428')">
<path d="M2.00625 5.65308H46.0031C47.1094 5.65308 48.0094 6.55308 48.0094 7.65933V33.3656C48.0094 34.4718 47.1094 35.3718 46.0031 35.3718H2.00625C0.9 35.3718 0 34.4718 0 33.3656V7.65933C0 6.55308 0.9 5.65308 2.00625 5.65308Z" fill="url('#paint0_linear_1_428')"></path>
<path d="M0.16875 6.86255C0.05625 7.1063 0 7.37817 0 7.65942V33.3657C0 34.4719 0.9 35.3719 2.00625 35.3719H20.8125V6.86255H0.16875Z" fill="url('#paint1_linear_1_428')"></path>
<path d="M21.9844 22.9405L34.4156 35.3717H46.0031C47.1094 35.3717 48.0094 34.4717 48.0094 33.3655V7.65923C48.0094 7.38735 47.9531 7.11548 47.85 6.8811L21.9844 22.9405Z" fill="url('#paint2_linear_1_428')"></path>
<path d="M45.9935 35.3718H2.00596C1.18096 35.3718 0.477832 34.8749 0.168457 34.1624L21.9841 18.0843C23.1841 17.203 24.8247 17.203 26.0247 18.0843L47.8403 34.1624C47.531 34.8749 46.8185 35.3718 45.9935 35.3718Z" fill="url('#paint3_linear_1_428')"></path>
<path d="M0 18.5813V33.375C0 34.4813 0.9 35.3813 2.00625 35.3813H46.0031C47.1094 35.3813 48.0094 34.4813 48.0094 33.375V18.5813H0Z" fill="url('#paint4_linear_1_428')"></path>
<path d="M45.9938 5.65308H26.9437V35.3625H46.0031C47.1094 35.3625 48.0094 34.4625 48.0094 33.3562V7.65933C48 6.55308 47.1 5.65308 45.9938 5.65308Z" fill="url('#paint5_linear_1_428')"></path>
<path d="M21.9844 22.9405L34.4156 35.3717H46.0031C47.1094 35.3717 48.0094 34.4717 48.0094 33.3655V7.65923C48.0094 7.38735 47.9531 7.11548 47.85 6.8811L21.9844 22.9405Z" fill="url('#paint6_linear_1_428')"></path>
<path d="M45.9935 5.65308H2.00596C1.18096 5.65308 0.477832 6.14995 0.168457 6.86245L21.9841 22.9406C23.1841 23.8218 24.8247 23.8218 26.0247 22.9406L47.831 6.86245C47.531 6.14995 46.8185 5.65308 45.9935 5.65308Z" fill="url('#paint7_linear_1_428')"></path>
<path d="M45.9935 5.65308H2.00596C1.18096 5.65308 0.477832 6.14995 0.168457 6.86245L21.9841 22.9406C23.1841 23.8218 24.8247 23.8218 26.0247 22.9406L47.831 6.86245C47.531 6.14995 46.8185 5.65308 45.9935 5.65308Z" fill="url('#paint8_linear_1_428')"></path>
<path d="M19.7153 32.3999L22.6872 35.3718H27.7966L19.7153 32.3999Z" fill="url('#paint9_linear_1_428')"></path>
<path d="M45.9935 35.3719C47.0997 35.3719 47.9997 34.4719 47.9997 33.3656V16.8187L44.7747 13.5938L42.4966 15.8719V35.3625H45.9935V35.3719Z" fill="url('#paint10_linear_1_428')"></path>
<path d="M30.0469 36.4219V41.5875C30.0469 42.2625 30.8625 42.6 31.3406 42.1219L35.925 37.5375L30.0469 36.4219Z" fill="url('#paint11_linear_1_428')"></path>
<path d="M30.0469 36.4219V41.5875C30.0469 42.2625 30.8625 42.6 31.3406 42.1219L35.925 37.5375L30.0469 36.4219Z" fill="url('#paint12_linear_1_428')"></path>
<path d="M30.0469 36.4219V41.5875C30.0469 42.2625 30.8625 42.6 31.3406 42.1219L35.925 37.5375L30.0469 36.4219Z" fill="url('#paint13_linear_1_428')"></path>
<path d="M19.9594 32.5408L42.7219 41.297C43.2937 41.5126 43.9125 41.1095 43.9312 40.5001L44.9531 14.1751C44.9812 13.4251 44.1281 12.9751 43.5281 13.4251L19.7437 30.9845C19.1812 31.4064 19.2937 32.2876 19.9594 32.5408Z" fill="url('#paint14_linear_1_428')"></path>
<path d="M30.7783 22.8376L19.7533 30.9845C19.1908 31.4064 19.3033 32.2876 19.9596 32.5408L42.7221 41.297C43.2939 41.5126 43.9127 41.1095 43.9314 40.5001L44.4096 28.3033L30.7783 22.8376Z" fill="url('#paint15_linear_1_428')"></path>
<path d="M44.4091 13.3126L30.0466 36.4219L19.9591 32.5407C19.3028 32.2876 19.1809 31.4063 19.7528 30.9938L43.5372 13.4251C43.8091 13.2094 44.1372 13.2001 44.4091 13.3126Z" fill="url('#paint16_linear_1_428')"></path>
<path d="M44.4094 13.3125L30.0469 36.4219L42.7219 41.2969C43.2938 41.5219 43.9125 41.1094 43.9313 40.5L44.9531 14.175C44.9719 13.7625 44.7281 13.4437 44.4094 13.3125Z" fill="url('#paint17_linear_1_428')"></path>
</g>
<defs>
<linearGradient id="paint0_linear_1_428" x1="20.6317" y1="11.0266" x2="29.9202" y2="37.1861" gradientUnits="userSpaceOnUse">
<stop stop-color="#FEF0AE"></stop>
<stop offset="1" stop-color="#FAC600"></stop>
</linearGradient>
<linearGradient id="paint1_linear_1_428" x1="10.8911" y1="20.7082" x2="16.0147" y2="15.4948" gradientUnits="userSpaceOnUse">
<stop stop-color="#FE9738" stop-opacity="0"></stop>
<stop offset="0.1025" stop-color="#FE9738" stop-opacity="0.02"></stop>
<stop offset="0.2265" stop-color="#FE9738" stop-opacity="0.078"></stop>
<stop offset="0.3615" stop-color="#FE9738" stop-opacity="0.175"></stop>
<stop offset="0.5046" stop-color="#FE9738" stop-opacity="0.31"></stop>
<stop offset="0.6539" stop-color="#FE9738" stop-opacity="0.483"></stop>
<stop offset="0.8085" stop-color="#FE9738" stop-opacity="0.695"></stop>
<stop offset="0.9645" stop-color="#FE9738" stop-opacity="0.94"></stop>
<stop offset="1" stop-color="#FE9738"></stop>
</linearGradient>
<linearGradient id="paint2_linear_1_428" x1="38.9662" y1="21.989" x2="35.6403" y2="27.3824" gradientUnits="userSpaceOnUse">
<stop stop-color="#FE9738" stop-opacity="0"></stop>
<stop offset="0.1025" stop-color="#FE9738" stop-opacity="0.02"></stop>
<stop offset="0.2265" stop-color="#FE9738" stop-opacity="0.078"></stop>
<stop offset="0.3615" stop-color="#FE9738" stop-opacity="0.175"></stop>
<stop offset="0.5046" stop-color="#FE9738" stop-opacity="0.31"></stop>
<stop offset="0.6539" stop-color="#FE9738" stop-opacity="0.483"></stop>
<stop offset="0.8085" stop-color="#FE9738" stop-opacity="0.695"></stop>
<stop offset="0.9645" stop-color="#FE9738" stop-opacity="0.94"></stop>
<stop offset="1" stop-color="#FE9738"></stop>
</linearGradient>
<linearGradient id="paint3_linear_1_428" x1="19.9135" y1="22.6819" x2="25.5764" y2="38.592" gradientUnits="userSpaceOnUse">
<stop stop-color="#FEF0AE"></stop>
<stop offset="1" stop-color="#FAC600"></stop>
</linearGradient>
<linearGradient id="paint4_linear_1_428" x1="24" y1="31.684" x2="24" y2="35.04" gradientUnits="userSpaceOnUse">
<stop stop-color="#FE9738" stop-opacity="0"></stop>
<stop offset="0.1025" stop-color="#FE9738" stop-opacity="0.02"></stop>
<stop offset="0.2265" stop-color="#FE9738" stop-opacity="0.078"></stop>
<stop offset="0.3615" stop-color="#FE9738" stop-opacity="0.175"></stop>
<stop offset="0.5046" stop-color="#FE9738" stop-opacity="0.31"></stop>
<stop offset="0.6539" stop-color="#FE9738" stop-opacity="0.483"></stop>
<stop offset="0.8085" stop-color="#FE9738" stop-opacity="0.695"></stop>
<stop offset="0.9645" stop-color="#FE9738" stop-opacity="0.94"></stop>
<stop offset="1" stop-color="#FE9738"></stop>
</linearGradient>
<linearGradient id="paint5_linear_1_428" x1="44.9176" y1="20.5127" x2="48.1536" y2="20.5127" gradientUnits="userSpaceOnUse">
<stop stop-color="#FE9738" stop-opacity="0"></stop>
<stop offset="0.1025" stop-color="#FE9738" stop-opacity="0.02"></stop>
<stop offset="0.2265" stop-color="#FE9738" stop-opacity="0.078"></stop>
<stop offset="0.3615" stop-color="#FE9738" stop-opacity="0.175"></stop>
<stop offset="0.5046" stop-color="#FE9738" stop-opacity="0.31"></stop>
<stop offset="0.6539" stop-color="#FE9738" stop-opacity="0.483"></stop>
<stop offset="0.8085" stop-color="#FE9738" stop-opacity="0.695"></stop>
<stop offset="0.9645" stop-color="#FE9738" stop-opacity="0.94"></stop>
<stop offset="1" stop-color="#FE9738"></stop>
</linearGradient>
<linearGradient id="paint6_linear_1_428" x1="38.6981" y1="20.4561" x2="34.833" y2="14.7932" gradientUnits="userSpaceOnUse">
<stop stop-color="#FE9738" stop-opacity="0"></stop>
<stop offset="0.1025" stop-color="#FE9738" stop-opacity="0.02"></stop>
<stop offset="0.2265" stop-color="#FE9738" stop-opacity="0.078"></stop>
<stop offset="0.3615" stop-color="#FE9738" stop-opacity="0.175"></stop>
<stop offset="0.5046" stop-color="#FE9738" stop-opacity="0.31"></stop>
<stop offset="0.6539" stop-color="#FE9738" stop-opacity="0.483"></stop>
<stop offset="0.8085" stop-color="#FE9738" stop-opacity="0.695"></stop>
<stop offset="0.9645" stop-color="#FE9738" stop-opacity="0.94"></stop>
<stop offset="1" stop-color="#FE9738"></stop>
</linearGradient>
<linearGradient id="paint7_linear_1_428" x1="24.3091" y1="7.72439" x2="29.2979" y2="21.6121" gradientUnits="userSpaceOnUse">
<stop stop-color="#FEF0AE"></stop>
<stop offset="1" stop-color="#FAC600"></stop>
</linearGradient>
<linearGradient id="paint8_linear_1_428" x1="29.7952" y1="16.7351" x2="31.6474" y2="19.8946" gradientUnits="userSpaceOnUse">
<stop stop-color="#FEF0AE" stop-opacity="0"></stop>
<stop offset="0.099908" stop-color="#FEF0AE" stop-opacity="0.021"></stop>
<stop offset="0.224" stop-color="#FEF0AE" stop-opacity="0.081"></stop>
<stop offset="0.3608" stop-color="#FEF0AE" stop-opacity="0.181"></stop>
<stop offset="0.507" stop-color="#FEF0AE" stop-opacity="0.32"></stop>
<stop offset="0.6605" stop-color="#FEF0AE" stop-opacity="0.498"></stop>
<stop offset="0.8202" stop-color="#FEF0AE" stop-opacity="0.717"></stop>
<stop offset="0.9822" stop-color="#FEF0AE" stop-opacity="0.97"></stop>
<stop offset="1" stop-color="#FEF0AE"></stop>
</linearGradient>
<linearGradient id="paint9_linear_1_428" x1="23.155" y1="36.2813" x2="23.8087" y2="33.687" gradientUnits="userSpaceOnUse">
<stop stop-color="#FE9738" stop-opacity="0"></stop>
<stop offset="0.1025" stop-color="#FE9738" stop-opacity="0.02"></stop>
<stop offset="0.2265" stop-color="#FE9738" stop-opacity="0.078"></stop>
<stop offset="0.3615" stop-color="#FE9738" stop-opacity="0.175"></stop>
<stop offset="0.5046" stop-color="#FE9738" stop-opacity="0.31"></stop>
<stop offset="0.6539" stop-color="#FE9738" stop-opacity="0.483"></stop>
<stop offset="0.8085" stop-color="#FE9738" stop-opacity="0.695"></stop>
<stop offset="0.9645" stop-color="#FE9738" stop-opacity="0.94"></stop>
<stop offset="1" stop-color="#FE9738"></stop>
</linearGradient>
<linearGradient id="paint10_linear_1_428" x1="48.3276" y1="24.9857" x2="43.7516" y2="24.4954" gradientUnits="userSpaceOnUse">
<stop stop-color="#FE9738" stop-opacity="0"></stop>
<stop offset="0.1025" stop-color="#FE9738" stop-opacity="0.02"></stop>
<stop offset="0.2265" stop-color="#FE9738" stop-opacity="0.078"></stop>
<stop offset="0.3615" stop-color="#FE9738" stop-opacity="0.175"></stop>
<stop offset="0.5046" stop-color="#FE9738" stop-opacity="0.31"></stop>
<stop offset="0.6539" stop-color="#FE9738" stop-opacity="0.483"></stop>
<stop offset="0.8085" stop-color="#FE9738" stop-opacity="0.695"></stop>
<stop offset="0.9645" stop-color="#FE9738" stop-opacity="0.94"></stop>
<stop offset="1" stop-color="#FE9738"></stop>
</linearGradient>
<linearGradient id="paint11_linear_1_428" x1="30.0139" y1="36.9074" x2="33.7568" y2="40.4632" gradientUnits="userSpaceOnUse">
<stop stop-color="#C8EFFE"></stop>
<stop offset="0.1027" stop-color="#C0EDFD"></stop>
<stop offset="0.258" stop-color="#ABEAFD"></stop>
<stop offset="0.4465" stop-color="#89E5FD"></stop>
<stop offset="0.6612" stop-color="#5ADDFC"></stop>
<stop offset="0.8947" stop-color="#1ED4FB"></stop>
<stop offset="1" stop-color="#01D0FB"></stop>
</linearGradient>
<linearGradient id="paint12_linear_1_428" x1="31.5248" y1="40.2907" x2="32.8815" y2="37.2027" gradientUnits="userSpaceOnUse">
<stop stop-color="#0290CF" stop-opacity="0"></stop>
<stop offset="0.2191" stop-color="#0290CF" stop-opacity="0.013"></stop>
<stop offset="0.3639" stop-color="#0290CF" stop-opacity="0.056"></stop>
<stop offset="0.4873" stop-color="#0290CF" stop-opacity="0.128"></stop>
<stop offset="0.5987" stop-color="#0290CF" stop-opacity="0.231"></stop>
<stop offset="0.7019" stop-color="#0290CF" stop-opacity="0.364"></stop>
<stop offset="0.7993" stop-color="#0290CF" stop-opacity="0.528"></stop>
<stop offset="0.892" stop-color="#0290CF" stop-opacity="0.722"></stop>
<stop offset="0.9788" stop-color="#0290CF" stop-opacity="0.941"></stop>
<stop offset="1" stop-color="#0290CF"></stop>
</linearGradient>
<linearGradient id="paint13_linear_1_428" x1="30.1547" y1="38.2552" x2="34.038" y2="40.3607" gradientUnits="userSpaceOnUse">
<stop stop-color="#0290CF" stop-opacity="0"></stop>
<stop offset="0.2191" stop-color="#0290CF" stop-opacity="0.013"></stop>
<stop offset="0.3639" stop-color="#0290CF" stop-opacity="0.056"></stop>
<stop offset="0.4873" stop-color="#0290CF" stop-opacity="0.128"></stop>
<stop offset="0.5987" stop-color="#0290CF" stop-opacity="0.231"></stop>
<stop offset="0.7019" stop-color="#0290CF" stop-opacity="0.364"></stop>
<stop offset="0.7993" stop-color="#0290CF" stop-opacity="0.528"></stop>
<stop offset="0.892" stop-color="#0290CF" stop-opacity="0.722"></stop>
<stop offset="0.9788" stop-color="#0290CF" stop-opacity="0.941"></stop>
<stop offset="1" stop-color="#0290CF"></stop>
</linearGradient>
<linearGradient id="paint14_linear_1_428" x1="30.6222" y1="21.3722" x2="42.6447" y2="33.3947" gradientUnits="userSpaceOnUse">
<stop stop-color="#C8EFFE"></stop>
<stop offset="0.1027" stop-color="#C0EDFD"></stop>
<stop offset="0.258" stop-color="#ABEAFD"></stop>
<stop offset="0.4465" stop-color="#89E5FD"></stop>
<stop offset="0.6612" stop-color="#5ADDFC"></stop>
<stop offset="0.8947" stop-color="#1ED4FB"></stop>
<stop offset="1" stop-color="#01D0FB"></stop>
</linearGradient>
<linearGradient id="paint15_linear_1_428" x1="32.1717" y1="34.5735" x2="31.2828" y2="37.1936" gradientUnits="userSpaceOnUse">
<stop stop-color="#0290CF" stop-opacity="0"></stop>
<stop offset="0.2191" stop-color="#0290CF" stop-opacity="0.013"></stop>
<stop offset="0.3639" stop-color="#0290CF" stop-opacity="0.056"></stop>
<stop offset="0.4873" stop-color="#0290CF" stop-opacity="0.128"></stop>
<stop offset="0.5987" stop-color="#0290CF" stop-opacity="0.231"></stop>
<stop offset="0.7019" stop-color="#0290CF" stop-opacity="0.364"></stop>
<stop offset="0.7993" stop-color="#0290CF" stop-opacity="0.528"></stop>
<stop offset="0.892" stop-color="#0290CF" stop-opacity="0.722"></stop>
<stop offset="0.9788" stop-color="#0290CF" stop-opacity="0.941"></stop>
<stop offset="1" stop-color="#0290CF"></stop>
</linearGradient>
<linearGradient id="paint16_linear_1_428" x1="34.3045" y1="24.391" x2="37.1117" y2="26.3093" gradientUnits="userSpaceOnUse">
<stop stop-color="#0290CF" stop-opacity="0"></stop>
<stop offset="0.2191" stop-color="#0290CF" stop-opacity="0.013"></stop>
<stop offset="0.3639" stop-color="#0290CF" stop-opacity="0.056"></stop>
<stop offset="0.4873" stop-color="#0290CF" stop-opacity="0.128"></stop>
<stop offset="0.5987" stop-color="#0290CF" stop-opacity="0.231"></stop>
<stop offset="0.7019" stop-color="#0290CF" stop-opacity="0.364"></stop>
<stop offset="0.7993" stop-color="#0290CF" stop-opacity="0.528"></stop>
<stop offset="0.892" stop-color="#0290CF" stop-opacity="0.722"></stop>
<stop offset="0.9788" stop-color="#0290CF" stop-opacity="0.941"></stop>
<stop offset="1" stop-color="#0290CF"></stop>
</linearGradient>
<linearGradient id="paint17_linear_1_428" x1="42.1836" y1="27.1936" x2="44.7101" y2="27.4275" gradientUnits="userSpaceOnUse">
<stop stop-color="#0290CF" stop-opacity="0"></stop>
<stop offset="0.2191" stop-color="#0290CF" stop-opacity="0.013"></stop>
<stop offset="0.3639" stop-color="#0290CF" stop-opacity="0.056"></stop>
<stop offset="0.4873" stop-color="#0290CF" stop-opacity="0.128"></stop>
<stop offset="0.5987" stop-color="#0290CF" stop-opacity="0.231"></stop>
<stop offset="0.7019" stop-color="#0290CF" stop-opacity="0.364"></stop>
<stop offset="0.7993" stop-color="#0290CF" stop-opacity="0.528"></stop>
<stop offset="0.892" stop-color="#0290CF" stop-opacity="0.722"></stop>
<stop offset="0.9788" stop-color="#0290CF" stop-opacity="0.941"></stop>
<stop offset="1" stop-color="#0290CF"></stop>
</linearGradient>
<clipPath id="clip0_1_428">
<rect width="48" height="48" fill="white"></rect>
</clipPath>
</defs>
</svg>
